<?xml version="1.0" encoding="UTF-8"?>
<svg width="139px" height="23px" viewBox="0 0 139 23" version="1.1" xmlns="http://www.w3.org/2000/svg" xmlns:xlink="http://www.w3.org/1999/xlink">
    <!-- Generator: Sketch 54.1 (76490) - https://sketchapp.com -->
    <title>crocusoft-logo-white</title>
    <desc>Created with Sketch.</desc>
    <defs>
        <polygon id="path-1" points="0.235402412 0.205016386 11.1327889 0.205016386 11.1327889 12.6489527 0.235402412 12.6489527"></polygon>
    </defs>
    <g id="Page-1" stroke="none" stroke-width="1" fill="none" fill-rule="evenodd">
        <g id="Desktop-HD" transform="translate(-707.000000, -3181.000000)">
            <g id="crocusoft-logo-white" transform="translate(707.000000, 3180.228814)">
                <polygon id="Fill-1" fill="#FEFEFE" points="9.92920738 0.765717033 0.992907801 5.54663098 6.04344353 8.70897944 13.7311449 8.70897944 18.8652482 5.54663098"></polygon>
                <polygon id="Fill-2" fill="#FEFEFE" points="0.518778441 17.6401888 8.849237 23.6025965 8.93617021 17.1914357 5.12982894 9.93128273 0 6.72316384"></polygon>
                <polygon id="Fill-3" fill="#FEFEFE" points="14.7281799 9.93128273 10.9219858 17.1914357 11.0086651 23.6025965 19.3391063 17.6401888 19.858156 6.72316384"></polygon>
                <polygon id="Fill-4" fill="#FEFEFE" points="9.86071214 15.6593341 12.9078014 10.694795 6.95035461 10.694795"></polygon>
                <g id="Group-24" transform="translate(24.822695, 5.730256)">
                    <path d="M12.0791678,11.3347098 C10.7173775,12.5970039 8.95778782,13.183838 7.04685845,13.183838 C2.12805379,13.183838 0.0468673279,10.0015651 0.0279498732,6.76596635 C0.00876597548,3.5130931 2.26020953,0.206643699 7.04685845,0.206643699 C8.84428309,0.206643699 10.546854,0.846302836 11.9089107,2.10859691 L10.2441747,3.61974468 C9.37397182,2.81960746 8.20055674,2.44607657 7.04685845,2.44607657 C3.84954216,2.44607657 2.46856797,4.6862605 2.48748543,6.76596635 C2.50640288,8.82814729 3.7736059,10.9792046 7.04685845,10.9792046 C8.20055674,10.9792046 9.506394,10.534823 10.3765969,9.71716083 L12.0791678,11.3347098 Z" id="Fill-5" fill="#FEFEFE"></path>
                    <path d="M15.3035547,2.64195497 L15.3035547,6.62386438 L19.1062296,6.62386438 C20.6955622,6.62386438 21.376857,5.62869997 21.376857,4.6327845 C21.376857,3.63762009 20.6766448,2.64195497 19.1062296,2.64195497 L15.3035547,2.64195497 Z M24.536072,12.8992835 L21.5660316,12.8992835 L17.7068708,8.73937112 L15.3035547,8.73937112 L15.3035547,12.8992835 L12.8061843,12.8992835 L12.8061843,0.437571913 C14.9065546,0.437571913 17.0063921,0.455597533 19.1062296,0.455597533 C22.227876,0.473122441 23.8742275,2.42840145 23.8742275,4.57945871 C23.8742275,6.28613437 23.041593,8.01033495 20.5255716,8.49026707 L24.536072,12.7390558 L24.536072,12.8992835 Z" id="Fill-7" fill="#FEFEFE"></path>
                    <path d="M27.1420446,6.80191745 C27.1982641,8.84582242 28.3716791,11.0324302 31.4933256,11.0324302 C34.6149721,11.0324302 35.7878543,8.82829751 35.8259556,6.78389183 C35.8632576,4.68641071 34.6149721,2.33982555 31.4933256,2.33982555 C28.3716791,2.33982555 27.0850258,4.70393562 27.1420446,6.80191745 M38.2852247,6.74809095 C38.2476563,9.96616474 36.1472859,13.1837378 31.4933256,13.1837378 C26.8388324,13.1837378 24.6822426,10.0372658 24.6822426,6.76586621 C24.6822426,3.49521769 26.9145022,0.206543557 31.4933256,0.206543557 C36.0526986,0.206543557 38.3230596,3.49521769 38.2852247,6.74809095" id="Fill-9" fill="#FEFEFE"></path>
                    <path d="M51.3855088,11.3347098 C50.0234521,12.5970039 48.2638623,13.183838 46.3526665,13.183838 C41.4338619,13.183838 39.3529419,10.0015651 39.3342908,6.76596635 C39.315107,3.5130931 41.5662841,0.206643699 46.3526665,0.206643699 C48.1503576,0.206643699 49.853195,0.846302836 51.2149853,2.10859691 L49.5502493,3.61974468 C48.6803128,2.81960746 47.5066313,2.44607657 46.3526665,2.44607657 C43.1556167,2.44607657 41.7746425,4.6862605 41.7938264,6.76596635 C41.8124774,8.82814729 43.0796804,10.9792046 46.3526665,10.9792046 C47.5066313,10.9792046 48.8124685,10.534823 49.6829379,9.71716083 L51.3855088,11.3347098 Z" id="Fill-11" fill="#FEFEFE"></path>
                    <path d="M63.6265408,0.473097405 L63.6265408,7.60172921 C63.6265408,11.2814591 61.2237576,13.1656371 57.8940191,13.1656371 C54.7158867,13.1656371 52.0101578,11.3525602 52.0101578,7.60172921 L52.0101578,0.473097405 L54.4888773,0.473097405 L54.4888773,7.60172921 C54.4888773,9.84166279 55.8506676,11.0326055 57.913203,11.0326055 C59.9752056,11.0326055 61.1483542,9.73476085 61.1483542,7.60172921 L61.1483542,0.473097405 L63.6265408,0.473097405 Z" id="Fill-13" fill="#FEFEFE"></path>
                    <path d="M73.7831091,3.45976731 C73.3288237,2.7485064 72.0802717,2.07329674 70.6425451,2.07329674 C68.7883681,2.07329674 67.8995142,2.8018322 67.8995142,3.72614591 C67.8995142,4.81068735 69.2613045,5.11311719 70.8506371,5.29061947 C73.6125855,5.61082457 76.1858922,6.28603423 76.1858922,9.25475362 C76.1858922,12.0281955 73.5747506,13.2188878 70.6233612,13.2188878 C67.9178988,13.2188878 65.8369788,12.4370265 64.8530047,10.1615424 L66.9341911,9.1483524 C67.5206322,10.5170477 69.0534789,11.121657 70.6611961,11.121657 C72.2316113,11.121657 73.7074392,10.6061744 73.7074392,9.25475362 C73.7074392,8.08183658 72.401602,7.6016541 70.6425451,7.42390146 C67.9370827,7.12172198 65.4394458,6.44651232 65.4394458,3.65504485 C65.4394458,1.09540688 68.1265237,0.0464159702 70.5668753,0.0288910624 C72.6288779,0.0288910624 74.7668167,0.579673881 75.7691754,2.49965271 L73.7831091,3.45976731 Z" id="Fill-15" fill="#FEFEFE"></path>
                    <path d="M79.4973261,6.80191745 C79.5543449,8.84582242 80.7269606,11.0324302 83.8486071,11.0324302 C86.9702536,11.0324302 88.1434022,8.82829751 88.1812371,6.78389183 C88.219072,4.68641071 86.9702536,2.33982555 83.8486071,2.33982555 C80.7269606,2.33982555 79.4405737,4.70393562 79.4973261,6.80191745 M90.6407727,6.74809095 C90.6026713,9.96616474 88.5025674,13.1837378 83.8486071,13.1837378 C79.1943804,13.1837378 77.038057,10.0372658 77.038057,6.76586621 C77.038057,3.49521769 79.2700502,0.206543557 83.8486071,0.206543557 C88.4082466,0.206543557 90.6783411,3.49521769 90.6407727,6.74809095" id="Fill-17" fill="#FEFEFE"></path>
                    <polygon id="Fill-19" fill="#FEFEFE" points="92.2665547 12.8992084 92.2665547 0.473047334 101.782834 0.473047334 101.782834 2.73100653 94.7639252 2.73100653 94.7639252 6.12633225 101.404485 6.12633225 101.404485 8.29491442 94.7639252 8.29491442 94.7639252 12.8992084"></polygon>
                    <g id="Group-23" transform="translate(102.314121, 0.250356)">
                        <mask id="mask-2" fill="white">
                            <use xlink:href="#path-1"></use>
                        </mask>
                        <g id="Clip-22"></g>
                        <polygon id="Fill-21" fill="#FEFEFE" mask="url(#mask-2)" points="4.4353438 2.33829838 0.235402412 2.33829838 0.235402412 0.205016386 11.1329221 0.205016386 11.1329221 2.33829838 6.9329807 2.33829838 6.9329807 12.6489527 4.4353438 12.6489527"></polygon>
                    </g>
                </g>
            </g>
        </g>
    </g>
</svg>